# xmcd CD database file generated by OrangeCD 5.2
#
# Track frame offsets:
#	150
#	14325
#	26333
#	41081
#	55297
#	69345
#	84395
#	105893
#	119885
#	129621
#	147192
#	161695
#	174954
#	190040
#	201474
#	216108
#	231366
#	245192
#
# Disc length: 3446 seconds
#
# Revision: 0
# Processed by: cddbd v1.5.2PL0 Copyright (c) Steve Scherf et al.
# Submitted via: OrangeCD 5.2
#
DISCID=020d7412
DTITLE=Various Artist - The Million Sellers of the 30s 1938
DYEAR=2006
DGENRE=Blues
TTITLE0=Alexander's Ragtime Band - Victor Young and His Orchestra, Intro by Eddie
TTITLE0=Cantor
TTITLE1=A-Tisket, A-Tasket - Ella Fitzgerald
TTITLE2=Begin the Beguine - Artie Shaw and His Orchestra
TTITLE3=Bei Mir Bist Du Schoen - The Andrews Sisters
TTITLE4=Change Partners - Fred Astaire
TTITLE5=Don't Be That Way - Benny Goodman and His Orchestra
TTITLE6=I Can't Get Started - Bunny Berigan and His Orchestra
TTITLE7=I Let a Song Go Out of My Heart - Duke Ellington and His Orchestra
TTITLE8=I'm Gonna Lock My Heart (And Throw Away the Key) - Billie Holiday
TTITLE9=Jalousie - The Boston Pops Orchestra
TTITLE10=Martha - Larry Clinton and His Orchestra
TTITLE11=Music Maestro Please - Tommy Dorsey and His Orchestra
TTITLE12=My Reverie - Larry Clinton and His Orhestra
TTITLE13=Please Be Kind - Red Norvo
TTITLE14=Thanks For the Memory - Bob Hope and Shirley Ross
TTITLE15=The Donkey Serenade - Alan Jones
TTITLE16=Two Sleepy People - Fats Waller and His Rhythm
TTITLE17=You Must Have Been a Beautiful Baby - Bing Crosby
EXTD=
EXTT0=
EXTT1=
EXTT2=
EXTT3=
EXTT4=
EXTT5=
EXTT6=
EXTT7=
EXTT8=
EXTT9=
EXTT10=
EXTT11=
EXTT12=
EXTT13=
EXTT14=
EXTT15=
EXTT16=
EXTT17=
PLAYORDER=
